<svg xmlns="http://www.w3.org/2000/svg" class="icon" version="1.1" fill="#000000" viewBox="218.8 207.8 572 619"><g id="SVGRepo_bgCarrier" stroke-width="0"></g><g id="SVGRepo_tracerCarrier" stroke-linecap="round" stroke-linejoin="round" stroke="#CCCCCC" stroke-width="14.336000000000002"></g><g id="SVGRepo_iconCarrier"><path d="M218.8 804.7h572v22.1h-572z" fill="#fb9541"></path><path d="M240.8 207.8h528v596.8h-528z" fill="#E1F0FF"></path><path d="M284.8 594.7a33 33.2 0 1 0 66 0 33 33.2 0 1 0-66 0Z" fill="#fb9541"></path><path d="M394.8 462.1a33 33.2 0 1 0 66 0 33 33.2 0 1 0-66 0Z" fill="#fb9541"></path><path d="M524.1 550.1a33 33.2 0 1 0 66 0 33 33.2 0 1 0-66 0Z" fill="#fb9541"></path><path d="M658.8 395.7a33 33.2 0 1 0 66 0 33 33.2 0 1 0-66 0Z" fill="#fb9541"></path><path d="M328.6 572.3l91.8-95.3 15.8 15.5-91.8 95.2-15.8-15.4zM460.6 464.7l99 87.8-14.6 16.6-98.9-87.8 14.5-16.6zM687.8 418.4L581.2 534.1l-21.7-15.7 106.6-115.7 21.7 15.7z" fill="#fb9541"></path><path d="M218.8 207.8h572v22.1h-572zM218.8 229.9h22v574.7h-22zM768.8 229.9h22v596.8h-22z" fill="#fb9541"></path></g></svg>